<svg width="367" height="102" viewBox="0 0 367 102" fill="none" xmlns="http://www.w3.org/2000/svg">
<path d="M108.985 64H96.7L94.49 54.64C94.4033 54.2933 94.2517 53.7083 94.035 52.885C93.8617 52.0183 93.645 51.39 93.385 51C93.125 50.5667 92.7567 50.285 92.28 50.155C91.0667 50.1983 89.29 50.22 86.95 50.22V64H75.25V27.275C80.4933 26.885 85.39 26.69 89.94 26.69C94.0567 26.69 97.3933 27.0367 99.95 27.73C102.507 28.38 104.413 29.5283 105.67 31.175C106.97 32.7783 107.62 34.9883 107.62 37.805C107.62 40.4483 107.013 42.5283 105.8 44.045C104.587 45.5183 102.637 46.4067 99.95 46.71V47.1C101.467 47.23 102.723 47.7283 103.72 48.595C104.76 49.4183 105.453 50.48 105.8 51.78L108.985 64ZM86.95 42.875C87.34 42.9183 88.0983 42.94 89.225 42.94C92.5617 42.94 94.5117 42.6583 95.075 42.095C95.595 41.575 95.855 40.3617 95.855 38.455C95.855 36.6783 95.3783 35.465 94.425 34.815C93.515 34.165 91.9983 33.84 89.875 33.84C89.3983 33.84 88.4233 33.8833 86.95 33.97V42.875ZM112.63 26.95H139.605V34.75H124.33V41.51H137.2V48.53H124.33V56.07H139.54V64H112.63V26.95ZM166.016 26.95H178.366L168.356 64H151.391L141.316 26.95H153.731L159.711 55.94H160.036L166.016 26.95ZM201.246 55.875H190.456L188.506 64H176.546L188.506 26.95H203.781L215.221 64H203.196L201.246 55.875ZM195.786 34.945L191.951 48.66H199.686L196.046 34.945H195.786ZM266.228 64H255.308L254.463 43.59C254.333 39.56 254.181 36.505 254.008 34.425H253.813C253.293 36.0717 252.686 38.6283 251.993 42.095L251.668 43.72L247.183 64H236.263L232.493 45.735L231.843 42.485C230.933 38.455 230.305 35.7683 229.958 34.425H229.763C229.59 36.5917 229.438 40.1233 229.308 45.02C229.265 45.3233 229.243 45.8 229.243 46.45L228.658 64H217.673L219.233 26.95H237.823L241.008 42.94L241.788 47.23C242.135 45.8867 242.46 44.3917 242.763 42.745L245.753 26.95H264.733L266.228 64ZM286.914 26.755C290.424 26.755 293.392 27.08 295.819 27.73C298.246 28.38 300.174 29.6367 301.604 31.5C303.077 33.32 303.814 35.9417 303.814 39.365C303.814 40.8817 303.576 42.4417 303.099 44.045C302.666 45.605 302.102 46.97 301.409 48.14C300.759 49.31 300.174 50.0683 299.654 50.415C299.047 50.8483 297.704 51.195 295.624 51.455C293.544 51.6717 291.096 51.78 288.279 51.78C287.282 51.78 285.744 51.7367 283.664 51.65V64H271.964V26.95C276.514 26.82 281.497 26.755 286.914 26.755ZM291.789 43.46C292.222 42.8967 292.439 41.77 292.439 40.08C292.439 37.87 291.962 36.31 291.009 35.4C290.099 34.49 288.496 34.035 286.199 34.035C285.419 34.035 284.574 34.1 283.664 34.23V44.11C284.097 44.1533 284.942 44.175 286.199 44.175C289.536 44.175 291.399 43.9367 291.789 43.46Z" fill="black"/>
<path d="M317.795 26.95H329.495V64H317.795V26.95ZM355.51 64H343.81V35.075H333.345V26.95H365.975V35.075H355.51V64Z" fill="#0047FF"/>
<g clip-path="url(#clip0_22_74)">
<path d="M44.1194 51.4222L52.9999 63.803H41.728L26.6188 43.4151H40.9531C43.1332 43.4151 44.8995 41.6512 44.8995 39.4775C44.8995 37.3003 43.1332 35.5364 40.9531 35.5364L20.9766 35.7826L16.8542 30.2183L14.5896 27.16L40.5076 27C43.9573 27 47.0795 28.3964 49.3406 30.6527C51.6017 32.9108 52.9999 36.0306 52.9999 39.4775C52.9999 45.1105 49.2579 49.8729 44.1194 51.4222Z" fill="#0047FF"/>
<path d="M11.5009 27.0985L38.8312 64H27.5046L0 27.1548H11.5414" fill="#0047FF"/>
</g>
<defs>
<clipPath id="clip0_22_74">
<rect width="53" height="37" fill="white" transform="translate(0 27)"/>
</clipPath>
</defs>
</svg>
